<mxfile host="app.diagrams.net" modified="2021-10-14T03:14:24.328Z" agent="5.0 (Windows NT 10.0; Win64; x64) AppleWebKit/537.36 (KHTML, like Gecko) Chrome/94.0.4606.81 Safari/537.36 Edg/94.0.992.47" etag="I1eL9uwoHXtz6vZzi-vr" version="15.5.2" type="github">
  <diagram id="z-CwobHcTqejdmUt2V45" name="Page-1">
    <mxGraphModel dx="1422" dy="794" grid="1" gridSize="10" guides="1" tooltips="1" connect="1" arrows="1" fold="1" page="1" pageScale="1" pageWidth="850" pageHeight="1100" math="0" shadow="0">
      <root>
        <mxCell id="0" />
        <mxCell id="1" parent="0" />
        <mxCell id="6ojox6usvKkXge_dLivC-1" value="" style="sketch=0;outlineConnect=0;fontColor=#232F3E;gradientColor=none;fillColor=#6CAE3E;strokeColor=none;dashed=0;verticalLabelPosition=bottom;verticalAlign=top;align=center;html=1;fontSize=12;fontStyle=0;aspect=fixed;pointerEvents=1;shape=mxgraph.aws4.general_access_points;" vertex="1" parent="1">
          <mxGeometry x="393" y="60" width="65" height="78" as="geometry" />
        </mxCell>
        <mxCell id="6ojox6usvKkXge_dLivC-2" value="" style="sketch=0;outlineConnect=0;fontColor=#232F3E;gradientColor=none;strokeColor=#232F3E;fillColor=#ffffff;dashed=0;verticalLabelPosition=bottom;verticalAlign=top;align=center;html=1;fontSize=12;fontStyle=0;aspect=fixed;shape=mxgraph.aws4.resourceIcon;resIcon=mxgraph.aws4.users;" vertex="1" parent="1">
          <mxGeometry x="250" y="78" width="60" height="60" as="geometry" />
        </mxCell>
        <mxCell id="6ojox6usvKkXge_dLivC-4" value="Finance" style="rounded=0;whiteSpace=wrap;html=1;" vertex="1" parent="1">
          <mxGeometry x="60" y="230" width="90" height="40" as="geometry" />
        </mxCell>
        <mxCell id="6ojox6usvKkXge_dLivC-5" value="Finance" style="rounded=0;whiteSpace=wrap;html=1;" vertex="1" parent="1">
          <mxGeometry x="310" y="210" width="90" height="40" as="geometry" />
        </mxCell>
        <mxCell id="6ojox6usvKkXge_dLivC-6" value="Finance" style="rounded=0;whiteSpace=wrap;html=1;" vertex="1" parent="1">
          <mxGeometry x="100" y="81" width="90" height="40" as="geometry" />
        </mxCell>
      </root>
    </mxGraphModel>
  </diagram>
</mxfile>
